<svg xmlns="http://www.w3.org/2000/svg" width="40" height="40" viewBox="0 0 40 40">
  <path id="Union_1" data-name="Union 1" d="M5122.706,5305.527a2.747,2.747,0,1,0-5.411,0c-5.411,5.412-13.528,8.117-16.233,5.412s0-10.822,5.411-16.233a2.748,2.748,0,1,0,0-5.411c-5.411-5.411-8.117-13.528-5.411-16.233s10.822,0,16.233,5.411a2.747,2.747,0,1,0,5.411,0c5.411-5.411,13.528-8.116,16.233-5.411s0,10.822-5.411,16.233a2.748,2.748,0,1,0,0,5.411c5.411,5.411,8.117,13.526,5.411,16.233a4.388,4.388,0,0,1-3.184,1.062C5132.078,5312,5126.667,5309.488,5122.706,5305.527Zm-.994-8.613,6.405,3.2-3.2-6.406a3.825,3.825,0,0,1,0-3.422l3.2-6.405-6.405,3.2a3.831,3.831,0,0,1-3.423,0l-6.4-3.2,3.2,6.405a3.822,3.822,0,0,1,0,3.422l-3.2,6.406,6.4-3.2a3.824,3.824,0,0,1,3.423,0Zm-3.74-2.885a2.868,2.868,0,1,1,2.029.841A2.869,2.869,0,0,1,5117.972,5294.029Z" transform="translate(-5100 -5272)" fill="#d80e9c"/>
</svg>
